<svg xmlns="http://www.w3.org/2000/svg" xmlns:xlink="http://www.w3.org/1999/xlink" viewBox="0,0,256,256" width="50px" height="50px"><g fill="#1772b4" fill-rule="nonzero" stroke="none" stroke-width="1" stroke-linecap="butt" stroke-linejoin="miter" stroke-miterlimit="10" stroke-dasharray="" stroke-dashoffset="0" font-family="none" font-weight="none" font-size="none" text-anchor="none" style="mix-blend-mode: normal"><g transform="scale(5.12,5.12)"><path d="M18.98438,-0.01367c-0.55152,0.00862 -0.99193,0.46214 -0.98437,1.01367v1.58594l-1.29297,-1.29297c-0.25082,-0.26124 -0.62327,-0.36647 -0.97371,-0.27511c-0.35044,0.09136 -0.62411,0.36503 -0.71547,0.71547c-0.09136,0.35044 0.01388,0.72289 0.27511,0.97371l1.25391,1.25391c-0.28856,0.2397 -0.5536,0.5114 -0.78516,0.81445c-0.80017,1.04724 -1.28491,2.43078 -1.35547,3.96094l-0.25586,5.56055c-0.33581,7.27022 -0.10101,11.62566 0.69141,18.80859c0.00288,0.02619 0.00679,0.05225 0.01172,0.07813l0.47851,2.48438c-1.95047,1.72341 -3.45475,3.97129 -4.26953,6.57813l-2.01758,6.45508c-0.09625,0.30811 -0.03798,0.64372 0.1565,0.90135c0.19448,0.25763 0.50128,0.40563 0.82397,0.39748h29.97461c0.31824,-0.00007 0.61747,-0.1515 0.806,-0.40789c0.18853,-0.25638 0.24388,-0.58715 0.14908,-0.89094l-2.01758,-6.45508c-0.81464,-2.60638 -2.31955,-4.85287 -4.26953,-6.57617l0.47852,-2.48633c0.00493,-0.02588 0.00884,-0.05194 0.01172,-0.07812c0.79242,-7.18294 1.02722,-11.53837 0.69141,-18.80859l-0.25586,-5.56055c-0.07056,-1.53016 -0.5553,-2.9137 -1.35547,-3.96094c-0.23156,-0.30306 -0.4966,-0.57475 -0.78516,-0.81445l1.25391,-1.25391c0.26124,-0.25082 0.36647,-0.62327 0.27511,-0.97371c-0.09136,-0.35044 -0.36503,-0.62411 -0.71547,-0.71547c-0.35044,-0.09136 -0.72289,0.01388 -0.97371,0.27511l-1.29297,1.29297v-1.58594c0.0037,-0.2703 -0.10218,-0.53059 -0.29351,-0.72155c-0.19133,-0.19097 -0.45182,-0.29634 -0.72212,-0.29212c-0.55152,0.00862 -0.99193,0.46214 -0.98437,1.01367v1.58594l-1.29297,-1.29297c-0.25082,-0.26124 -0.62327,-0.36647 -0.97371,-0.27511c-0.35044,0.09136 -0.62411,0.36503 -0.71547,0.71547c-0.09136,0.35044 0.01388,0.72289 0.27511,0.97371l1.20117,1.20117c-0.315,0.252 -0.60412,0.54085 -0.85352,0.86719c-0.80027,1.04717 -1.28434,2.43089 -1.35547,3.96094l-0.13672,2.96094c-0.33639,7.29535 -0.41469,13.03471 0.27148,20.37891c-0.46889,-0.04574 -0.94155,-0.07617 -1.41992,-0.07617c-0.47837,0 -0.95104,0.03043 -1.41992,0.07617c0.68607,-7.34412 0.60687,-13.08341 0.26953,-20.37891l-0.13672,-2.96094c-0.07056,-1.53016 -0.55335,-2.9137 -1.35352,-3.96094c-0.24936,-0.32636 -0.53852,-0.61519 -0.85352,-0.86719l1.20117,-1.20117c0.26124,-0.25082 0.36647,-0.62327 0.27511,-0.97371c-0.09136,-0.35044 -0.36503,-0.62411 -0.71547,-0.71547c-0.35044,-0.09136 -0.72289,0.01388 -0.97371,0.27511l-1.29297,1.29297v-1.58594c0.0037,-0.2703 -0.10218,-0.53059 -0.29351,-0.72155c-0.19133,-0.19097 -0.45182,-0.29634 -0.72212,-0.29212zM19.10742,5.00586c0.58778,0.0162 1.1624,0.33036 1.66211,0.98438c0.51308,0.67151 0.89187,1.67905 0.94531,2.83789l0.13672,2.96094c0.34406,7.44081 0.41886,13.13424 -0.3125,20.62891c-1.58507,0.38712 -3.07797,1.03862 -4.42773,1.90625l-0.28516,-1.47266c-0.78415,-7.11561 -1.00933,-11.28402 -0.67773,-18.46289l0.25586,-5.56055c0.05344,-1.15884 0.43223,-2.16638 0.94531,-2.83789c0.48854,-0.63939 1.05081,-0.94941 1.625,-0.97852c0.04435,0.00099 0.08872,-0.00096 0.13281,-0.00586zM30.89063,5.00586c0.0428,0.00473 0.08586,0.00668 0.12891,0.00586c0.5762,0.02725 1.14068,0.33698 1.63086,0.97852c0.51308,0.67151 0.89187,1.67905 0.94531,2.83789l0.25586,5.56055c0.33159,7.17887 0.10642,11.34729 -0.67773,18.46289l-0.2832,1.47266c-1.35065,-0.86841 -2.84535,-1.51905 -4.43164,-1.90625c-0.73129,-7.49459 -0.6556,-13.18795 -0.3125,-20.62891l0.13672,-2.96094c0.05388,-1.15895 0.43403,-2.16631 0.94727,-2.83789c0.49931,-0.65336 1.07306,-0.96753 1.66016,-0.98437zM19,18c-1.10457,0 -2,1.34315 -2,3c0,1.65685 0.89543,3 2,3c1.10457,0 2,-1.34315 2,-3c0,-1.65685 -0.89543,-3 -2,-3zM31,18c-1.10457,0 -2,1.34315 -2,3c0,1.65685 0.89543,3 2,3c1.10457,0 2,-1.34315 2,-3c0,-1.65685 -0.89543,-3 -2,-3zM25,35.99805c0.2575,0 0.51594,0.09602 0.71094,0.29102l1.48828,1.49023l1.35156,-0.66992c0.5,-0.25 1.09984,-0.04859 1.33984,0.44141c0.25,0.5 0.04859,1.09984 -0.44141,1.33984l-2,1c-0.14,0.08 -0.29922,0.10938 -0.44922,0.10938c-0.26,0 -0.52094,-0.09906 -0.71094,-0.28906l-1.28906,-1.30078l-1.28906,1.30078c-0.39,0.39 -1.03188,0.39 -1.42188,0c-0.39,-0.39 -0.39,-1.03188 0,-1.42188l2,-2c0.195,-0.195 0.45344,-0.29102 0.71094,-0.29102zM18,40.99805c0.2575,0 0.51594,0.09602 0.71094,0.29102c0.39,0.39 0.39,1.03188 0,1.42188l-0.20117,0.18945c1.94,1.36 4.21023,2.09961 6.49023,2.09961c2.28,0 4.55023,-0.73961 6.49023,-2.09961l-0.20117,-0.18945c-0.39,-0.39 -0.39,-1.03188 0,-1.42188c0.39,-0.39 1.03187,-0.39 1.42188,0l2,2c0.39,0.39 0.39,1.03188 0,1.42188c-0.2,0.19 -0.45094,0.28906 -0.71094,0.28906c-0.26,0 -0.51094,-0.09906 -0.71094,-0.28906l-0.37891,-0.38086c-2.33,1.72 -5.10016,2.66992 -7.91016,2.66992c-2.81,0 -5.58016,-0.94992 -7.91016,-2.66992l-0.37891,0.38086c-0.2,0.19 -0.45094,0.28906 -0.71094,0.28906c-0.26,0 -0.51094,-0.09906 -0.71094,-0.28906c-0.39,-0.39 -0.39,-1.03188 0,-1.42188l2,-2c0.195,-0.195 0.45344,-0.29102 0.71094,-0.29102z"></path></g></g></svg>